<?xml version="1.0" encoding="UTF-8"?><svg id="Layer_2" xmlns="http://www.w3.org/2000/svg" viewBox="0 0 427.93 291.16"><defs><style>.cls-1{fill:#0077b6;stroke-width:0px;}</style></defs><g id="Layer_1-2"><path class="cls-1" d="M419.51.15c1.27,0,2.54-.05,3.81-.13,3-.19,4.4.98,4.44,4.06.08,5.99.05,11.98.05,17.96.04,87.56.08,175.11.11,262.67,0,.82.04,1.64-.05,2.45-.33,2.9-1.6,4.01-4.51,3.99-91.69-.56-183.38-1.14-275.07-1.68-47.39-.28-94.78-.51-142.17-.77-3.65-.02-4.86-1.18-4.88-4.59C.83,192.21.42,100.3,0,8.39-.02,2.84.53,2.3,7.17,2.25c17.7-.13,35.41-.29,53.11-.31M188.46,7.96c0,.18-.01.36-.02.54.93.33,1.86.65,2.79.98,20.14,7.16,37.54,18.19,49.9,36.02,10.79,15.57,15.06,32.7,10.61,51.4-4.39,18.43-15.64,32.09-31.16,42.35-20.9,13.81-44.2,18.66-68.96,17.55-1.23-.06-2.47-.11-3.98-.18v123.9c1.18,0,2.25.04,3.32,0,14.72-.69,29.3-2.46,43.67-5.74,76.47-17.45,134.94-60.32,176.9-126.01,25.52-39.96,39.93-83.95,45.11-131,.39-3.55.59-7.13.9-10.96-76.66.39-152.87.78-229.08,1.16ZM140.84,280.48V10.21c-.49-.05-.93-.14-1.37-.12-.63.02-1.26.11-1.89.2-11.71,1.72-23.14,4.56-34.11,9C60.91,36.52,29.98,65.65,15.75,109.74c-15.3,47.39-5.59,90.37,28.16,127.21,19.86,21.68,45.11,34.37,73.79,40.22,7.42,1.51,15.02,2.18,23.14,3.31ZM421.13,284.53V37.29c-1.08,3.75-1.78,7.56-2.58,11.34-15.73,73.92-52.19,135.09-112.27,181.55-32.78,25.34-69.6,42.29-110.13,51.09-2.16.47-4.31.97-6.47,1.46l.09.4c77.04.47,154.09.94,231.36,1.41ZM147.85,149.62c.35.12.59.27.85.29,1.45.13,2.89.28,4.34.34,12.52.54,24.85-.75,36.89-4.24,17.01-4.92,32.11-13.12,43.43-27.07,12.79-15.75,16.84-33.5,10.63-53.06-4.54-14.32-13.67-25.51-25.49-34.47-20.2-15.3-43.32-21.84-68.43-22.1-.68,0-1.36.18-2.21.31v139.99ZM6.98,112.51C24.7,59.6,60.96,26.09,112.38,8.87H6.98v103.63ZM108.1,282.05c-48.42-13.75-83.17-43.71-100.36-92.84-.19,5.46-.21,10.8-.19,16.14.1,24.58.21,49.16.31,73.75,0,1.54-.31,3.01,2.2,3,32.94-.07,65.89-.04,98.03-.04Z"/></g></svg>